<?xml version="1.0" encoding="utf-8"?>
<!-- Generator: Adobe Illustrator 19.2.1, SVG Export Plug-In . SVG Version: 6.00 Build 0)  -->
<svg version="1.1" id="layer" xmlns="http://www.w3.org/2000/svg" xmlns:xlink="http://www.w3.org/1999/xlink" x="0px" y="0px"
	 viewBox="0 0 652 652" style="enable-background:new 0 0 652 652;" xml:space="preserve">
<style type="text/css">
	.st0{fill:#7046AE;}
	.st1{fill:#00B6B4;}
</style>
<path class="st0" d="M595,368.5l-29.6-39.4v39.4h-21.2v-93.9h36.2c15.3,0,29.6,14.1,29.6,29.2c0,13-9,21.8-19.8,25.9l29.6,38.9H595z
	 M565.5,313.9h10.8c6.7,0,10.4-4.4,10.4-9.1s-3.8-9.1-10.4-9.1h-10.8V313.9z M474.5,368.5v-78.8H523v18.2h-30.3V320H517v18.2h-24.2
	v12.1H523v18.2H474.5z M398.8,289.7v18.2H417v60.6h18.2v-60.6h18.2v-18.2H398.8z M320,356.3l10.6-12.1c1.6,1.4,8.5,6.1,18.2,6.1
	c6.5,0,8.5-2.5,8.5-4.9c0-2.5-2-4.7-8.9-7.1l-6.1-2.2c-11.2-4-18.3-11.4-18.3-22.5c0-13.6,11.6-23.9,27.8-23.9
	c14.6,0,21.8,6.8,22.7,7.6l-9.1,13.6c-2-1.3-7.6-4.5-13.6-4.5c-5.7,0-7.6,3.3-7.6,6.1c0,3.6,3.1,5.1,9,7.2l6.1,1.9
	c11.5,4.1,18.2,12.6,18.2,22.7c0,13.8-12.2,24.2-28.8,24.2C330.4,368.5,321.6,357.9,320,356.3z M235.2,368.5h18.2v-39.4l45.5,39.4
	v-78.8h-18.1l-0.1,39.4l-45.5-39.4V368.5z"/>
<path class="st1" d="M135.2,329.1c0,21.8,17.4,39.4,39.4,39.4s39.4-17.6,39.4-39.4s-17.4-39.4-39.4-39.4S135.2,307.3,135.2,329.1z
	 M174.5,350.3c-11.6,0.1-21.1-9.2-21.2-20.8c0-0.1,0-0.2,0-0.4c-0.1-11.6,9.2-21.1,20.8-21.2c0.1,0,0.2,0,0.4,0
	c11.6-0.1,21.1,9.2,21.2,20.8c0,0.1,0,0.2,0,0.4c0.1,11.6-9.2,21.1-20.8,21.2C174.8,350.3,174.7,350.3,174.5,350.3"/>
<path class="st0" d="M113.9,274.5l-47,43.9l-47-43.9v93.9h21.2V323L67,345.7L92.7,323v45.5h21.2V274.5z"/>
</svg>
