<svg xmlns="http://www.w3.org/2000/svg" width="100%" height="40px" viewBox="0 0 135 40"><title>Monster App - Download on Google Play</title><defs><linearGradient id="za88dhtzra" x1="61.027%" x2="26.5%" y1="4.947%" y2="71.916%"><stop offset="0%" stop-color="#00A0FF"/><stop offset=".657%" stop-color="#00A1FF"/><stop offset="26.01%" stop-color="#00BEFF"/><stop offset="51.22%" stop-color="#00D2FF"/><stop offset="76.04%" stop-color="#00DFFF"/><stop offset="100%" stop-color="#00E3FF"/></linearGradient><linearGradient id="45tn2d4fzb" x1="107.622%" x2="-130.536%" y1="50.016%" y2="50.016%"><stop offset="0%" stop-color="#FFE000"/><stop offset="40.87%" stop-color="#FFBD00"/><stop offset="77.54%" stop-color="orange"/><stop offset="100%" stop-color="#FF9C00"/></linearGradient><linearGradient id="orvuk7m3ic" x1="86.253%" x2="-50.188%" y1="30.897%" y2="136.081%"><stop offset="0%" stop-color="#FF3A44"/><stop offset="100%" stop-color="#C31162"/></linearGradient><linearGradient id="yjwkipeqid" x1="-18.77%" x2="42.12%" y1="-11.832%" y2="35.081%"><stop offset="0%" stop-color="#32A071"/><stop offset="6.85%" stop-color="#2DA771"/><stop offset="47.62%" stop-color="#15CF74"/><stop offset="80.09%" stop-color="#06E775"/><stop offset="100%" stop-color="#00F076"/></linearGradient></defs><g fill="none" fill-rule="evenodd"><g fill-rule="nonzero"><g><g><path fill="#000" d="M130 40H5c-2.75 0-5-2.25-5-5V5c0-2.75 2.25-5 5-5h125c2.75 0 5 2.25 5 5v30c0 2.75-2.25 5-5 5z" transform="translate(-263 -1018) translate(263 226) translate(0 792)"/><path fill="#A6A6A6" d="M130 .8c2.32 0 4.2 1.88 4.2 4.2v30c0 2.32-1.88 4.2-4.2 4.2H5C2.68 39.2.8 37.32.8 35V5C.8 2.68 2.68.8 5 .8h125m0-.8H5C2.25 0 0 2.25 0 5v30c0 2.75 2.25 5 5 5h125c2.75 0 5-2.25 5-5V5c0-2.75-2.25-5-5-5z" transform="translate(-263 -1018) translate(263 226) translate(0 792)"/><g fill="#FFF" stroke="#FFF" stroke-width=".2"><path d="M6.42 4.24c0 .84-.25 1.51-.75 2-.56.59-1.3.89-2.2.89-.87 0-1.6-.3-2.21-.9C.65 5.63.35 4.88.35 4c0-.89.3-1.63.91-2.23.61-.6 1.34-.9 2.21-.9.43 0 .84.08 1.23.25.39.17.7.39.94.67l-.53.53c-.4-.47-.94-.71-1.64-.71-.63 0-1.18.22-1.64.67-.46.44-.69 1.02-.69 1.73s.23 1.29.69 1.73c.46.44 1.01.67 1.64.67.67 0 1.23-.22 1.68-.67.29-.29.46-.7.5-1.22H3.47V3.8h2.91c.02.15.04.3.04.44zM11.03 1.74L8.3 1.74 8.3 3.64 10.76 3.64 10.76 4.36 8.3 4.36 8.3 6.26 11.03 6.26 11.03 7 7.53 7 7.53 1 11.03 1 11.03 1.74zM14.28 7L13.51 7 13.51 1.74 11.83 1.74 11.83 1 15.95 1 15.95 1.74 14.27 1.74 14.27 7zM18.94 7L18.94 1 19.71 1 19.71 7zM23.13 7L22.36 7 22.36 1.74 20.68 1.74 20.68 1 24.8 1 24.8 1.74 23.12 1.74 23.12 7zM32.61 6.22c-.59.61-1.32.91-2.2.91-.88 0-1.61-.3-2.2-.91-.59-.61-.88-1.35-.88-2.22 0-.87.29-1.62.88-2.22.59-.61 1.32-.91 2.2-.91.87 0 1.6.3 2.2.91.59.61.89 1.35.89 2.22-.01.88-.3 1.62-.89 2.22zm-3.83-.5c.44.45.99.67 1.63.67.64 0 1.19-.22 1.63-.67.44-.45.67-1.02.67-1.72s-.22-1.27-.67-1.72c-.44-.45-.99-.67-1.63-.67-.64 0-1.19.22-1.63.67-.44.45-.67 1.02-.67 1.72s.23 1.27.67 1.72zM34.58 7L34.58 1 35.52 1 38.44 5.67 38.47 5.67 38.44 4.51 38.44 1 39.21 1 39.21 7 38.41 7 35.36 2.11 35.33 2.11 35.36 3.27 35.36 7z" transform="translate(-263 -1018) translate(263 226) translate(0 792) translate(41 6)"/></g><path fill="#FFF" d="M68.14 21.75c-2.35 0-4.27 1.79-4.27 4.25 0 2.45 1.92 4.25 4.27 4.25 2.35 0 4.27-1.8 4.27-4.25 0-2.46-1.92-4.25-4.27-4.25zm0 6.83c-1.29 0-2.4-1.06-2.4-2.58 0-1.53 1.11-2.58 2.4-2.58 1.29 0 2.4 1.05 2.4 2.58 0 1.52-1.12 2.58-2.4 2.58zm-9.32-6.83c-2.35 0-4.27 1.79-4.27 4.25 0 2.45 1.92 4.25 4.27 4.25 2.35 0 4.27-1.8 4.27-4.25 0-2.46-1.92-4.25-4.27-4.25zm0 6.83c-1.29 0-2.4-1.06-2.4-2.58 0-1.53 1.11-2.58 2.4-2.58 1.29 0 2.4 1.05 2.4 2.58 0 1.52-1.11 2.58-2.4 2.58zm-11.08-5.52v1.8h4.32c-.13 1.01-.47 1.76-.98 2.27-.63.63-1.61 1.32-3.33 1.32-2.66 0-4.74-2.14-4.74-4.8 0-2.66 2.08-4.8 4.74-4.8 1.43 0 2.48.56 3.25 1.29l1.27-1.27c-1.08-1.03-2.51-1.82-4.53-1.82-3.64 0-6.7 2.96-6.7 6.61 0 3.64 3.06 6.61 6.7 6.61 1.97 0 3.45-.64 4.61-1.85 1.19-1.19 1.56-2.87 1.56-4.22 0-.42-.03-.81-.1-1.13h-6.07v-.01zm45.31 1.4c-.35-.95-1.43-2.71-3.64-2.71-2.19 0-4.01 1.72-4.01 4.25 0 2.38 1.8 4.25 4.22 4.25 1.95 0 3.08-1.19 3.54-1.88l-1.45-.97c-.48.71-1.14 1.18-2.09 1.18s-1.63-.44-2.06-1.29l5.69-2.35-.2-.48zm-5.8 1.42c-.05-1.64 1.27-2.48 2.22-2.48.74 0 1.37.37 1.58.9l-3.8 1.58zM82.63 30h1.87V17.5h-1.87V30zm-3.06-7.3h-.07c-.42-.5-1.22-.95-2.24-.95-2.13 0-4.08 1.87-4.08 4.27 0 2.38 1.95 4.24 4.08 4.24 1.01 0 1.82-.45 2.24-.97h.06v.61c0 1.63-.87 2.5-2.27 2.5-1.14 0-1.85-.82-2.14-1.51l-1.63.68c.47 1.13 1.71 2.51 3.77 2.51 2.19 0 4.04-1.29 4.04-4.43v-7.64h-1.77v.69h.01zm-2.15 5.88c-1.29 0-2.37-1.08-2.37-2.56 0-1.5 1.08-2.59 2.37-2.59 1.27 0 2.27 1.1 2.27 2.59.01 1.48-.99 2.56-2.27 2.56zm24.39-11.08h-4.47V30h1.87v-4.74h2.61c2.07 0 4.1-1.5 4.1-3.88s-2.05-3.88-4.11-3.88zm.04 6.02H99.2v-4.29h2.65c1.4 0 2.19 1.16 2.19 2.14 0 .98-.79 2.15-2.19 2.15zm11.54-1.79c-1.35 0-2.75.6-3.33 1.91l1.66.69c.35-.69 1.01-.92 1.7-.92.96 0 1.95.58 1.96 1.61v.13c-.34-.19-1.06-.48-1.95-.48-1.79 0-3.6.98-3.6 2.81 0 1.67 1.46 2.75 3.1 2.75 1.25 0 1.95-.56 2.38-1.22h.06v.97h1.8v-4.79c.01-2.22-1.65-3.46-3.78-3.46zm-.23 6.85c-.61 0-1.46-.31-1.46-1.06 0-.96 1.06-1.33 1.98-1.33.82 0 1.21.18 1.7.42-.14 1.15-1.14 1.97-2.22 1.97zM123.74 22l-2.14 5.42h-.06L119.32 22h-2.01l3.33 7.58-1.9 4.21h1.95L125.82 22h-2.08zm-16.8 8h1.87V17.5h-1.87V30z" transform="translate(-263 -1018) translate(263 226) translate(0 792)"/><g><path fill="url(#za88dhtzra)" d="M1.44.54c-.29.31-.46.79-.46 1.4v22.12c0 .62.17 1.1.46 1.4l.07.07L13.9 13.15v-.3L1.51.47l-.07.07z" transform="translate(-263 -1018) translate(263 226) translate(0 792) translate(9 7)"/><path fill="url(#45tn2d4fzb)" d="M18.03 17.28l-4.13-4.13v-.3l4.13-4.13.09.05 4.89 2.78c1.4.79 1.4 2.09 0 2.89l-4.89 2.78-.09.06z" transform="translate(-263 -1018) translate(263 226) translate(0 792) translate(9 7)"/><path fill="url(#orvuk7m3ic)" d="M18.12 17.22L13.9 13 1.44 25.46c.46.49 1.22.55 2.08.06l14.6-8.3" transform="translate(-263 -1018) translate(263 226) translate(0 792) translate(9 7)"/><path fill="url(#yjwkipeqid)" d="M18.12 8.78L3.51.48C2.65-.01 1.89.05 1.43.54L13.9 13l4.22-4.22z" transform="translate(-263 -1018) translate(263 226) translate(0 792) translate(9 7)"/><g fill="#000"><path d="M18.03.13L3.51 8.38c-.81.46-1.54.43-2 .01l-.07.07.07.07c.47.42 1.19.45 2-.01L18.12.22l-.09-.09z" opacity=".2" transform="translate(-263 -1018) translate(263 226) translate(0 792) translate(9 7) translate(0 17)"/><path d="M1.44 8.32c-.29-.31-.46-.79-.46-1.4v.15c0 .62.17 1.1.46 1.4l.07-.07-.07-.08z" opacity=".12" transform="translate(-263 -1018) translate(263 226) translate(0 792) translate(9 7) translate(0 17)"/></g><path fill="#000" d="M23.01 14.3l-4.99 2.83.09.09L23 14.44c.7-.4 1.05-.92 1.05-1.44-.05.47-.4.94-1.04 1.3z" opacity=".12" transform="translate(-263 -1018) translate(263 226) translate(0 792) translate(9 7)"/><path fill="#FFF" d="M3.51.62l19.5 11.08c.63.36.99.82 1.05 1.3 0-.52-.35-1.05-1.05-1.44L3.51.48C2.11-.31.97.35.97 1.95v.15C.97.49 2.12-.17 3.51.62z" opacity=".25" transform="translate(-263 -1018) translate(263 226) translate(0 792) translate(9 7)"/></g></g></g></g></g></svg>